.
..............................Site Info...........................

 -   http://www.scenetime.com  *_*   

Scenetime .Always on time . friendly online private torrent community ..

     We care to share . Join us on  http://www.scenetime.com 

    Be the first to get new release at  http://www.scenetime.com

        Seed back for speed


...................................NFO:.................................................[img]http://i.imgur.com/wI83j.jpg[/img]

[b]Wrath.of.the.Titans.2012.TS.XViD.AC3-ADTRG[/b]

Perseus braves the treacherous underworld to rescue his father, Zeus, captured by his son, Ares, and brother Hades who unleash the ancient Titans upon the world.

[url]http://www.imdb.com/title/tt1646987/[/url]

Source cam     -  Gn3v.Ti1anov.2012.D.TS.1400MB   Thanks
Source Line    -  Dragon Exclusive , thanks very much Bro ;)



Complete name                            : Wrath.of.the.Titans.2012.TS.XViD.AC3-ADTRG.avi
Format                                   : AVI
Format/Info                              : Audio Video Interleave
File size                                : 1.26 GiB
Duration                                 : 1h 30mn
Overall bit rate                         : 2 000 Kbps

Video
ID                                       : 0
Format                                   : MPEG-4 Visual
Codec ID                                 : XVID
Duration                                 : 1h 30mn
Bit rate                                 : 1 799 Kbps
Width                                    : 720 pixels
Height                                   : 384 pixels
Display aspect ratio                     : 1.875
Frame rate                               : 25.000 fps
Stream size                              : 1.13 GiB (90%)

Audio
ID                                       : 1
Format                                   : AC-3
Duration                                 : 1h 30mn
Bit rate                                 : 192 Kbps
Channel(s)                               : 2 channels
Channel positions                        : Front: L R
Sampling rate                            : 48.0 KHz
Stream size                              : 124 MiB (10%)

Encoders - NoWoRRiEs and LiMeY

k, as you already know, Two different sources. 1st min and last 10 min lower quality. the rest is hunky dorrie.
split into three parts and  cleaned blah blah blah ;)  (oh no i didn't) lol
synced SuperDuper Line from our God Like Line supplier DE ;)
Special thanks to NoWoRRiEs for cleaning this up and Dragon Exclusive for the Line, awesome work bro's ;)

If you like this Release, dont be shy.... come say hi :)







[img]http://i.imgur.com/TZ5ai.jpg[/img]


Dont fear the Atomic Dragon, Embrace it  :)


Greetz to DragonMaster,cOOkies,Mr Geek,AnimeKing,Cush,NoWoRRiEs Rayne, Mr & Mrs IrNbRu and the rest of the crew

Respect to CM8,Goon,Hope,mSD,InfernO,legend-rg and maybe a few more ;)